<svg class="looka-1j8o68f" viewBox="0 0 100 100" width="50" height="50" xmlns="http://www.w3.org/2000/svg">
  <g fill="#22c55e" class="color15eda3 svgShape">
    <path d="M91.56,56.18l-4.39-.81c-5.58-3.67-10.36-10.66-13.55-19.78l10.32-7.1A1.5,1.5,0,1,0,82.24,26L71.78,33.21A28.65,28.65,0,0,1,58.26,13.54L59.11,9a1.5,1.5,0,1,0-2.95-.55l-.79,4.25,0,0c-3.65,5.7-10.48,10.4-19.78,13.65l-6.25-9.09A1.5,1.5,0,0,0,26.84,19l6.34,9.22A28.65,28.65,0,0,1,13.5,41.73L9,40.89a1.5,1.5,0,0,0-.55,3l4.56.84c5.53,3.65,10.14,10.46,13.39,19.75l-10.13,7a1.5,1.5,0,1,0,1.7,2.47L28.2,66.81A28.66,28.66,0,0,1,41.73,86.55l-.81,4.36a1.5,1.5,0,0,0,1.2,1.75l.28,0a1.5,1.5,0,0,0,1.47-1.23L44.7,87c3.67-5.53,10.65-10.28,19.77-13.47L71.54,83.8A1.5,1.5,0,0,0,74,82.1L66.84,71.67A28.68,28.68,0,0,1,86.6,58.31l4.41.82.28,0a1.5,1.5,0,0,0,.27-3ZM57,20.11a31.66,31.66,0,0,0,12,14.94l-8.39,5.77c-3.91-2.08-5.81-5-5.73-8.88a1.49,1.49,0,0,0,0-.37ZM46.15,50.82l-6,4.16A16.45,16.45,0,0,0,37,49.12Zm-7.73-4.48A13.34,13.34,0,0,0,42.69,42l4,5.84Zm9.46,6.93L46.34,61.6A13.32,13.32,0,0,0,42,57.31ZM45,40.13A16.44,16.44,0,0,0,50.87,37l-1.7,9.18Zm5.84,13.59,4.16,6a16.45,16.45,0,0,0-5.86,3.14Zm2.58-1.54,8,1.48a13.5,13.5,0,0,0-4.08,4.2Zm-1.31-5.45,1.53-8.27A13.34,13.34,0,0,0,58,42.71Zm1.7,2.47,6-4.16A16.45,16.45,0,0,0,63,50.89Zm.41-30.36L51.95,31.19a13.47,13.47,0,0,1-8.74,6.32l-5.89-8.56C44.42,26.36,50.15,22.93,54.23,18.83ZM35,30.9l5.77,8.38c-2.08,3.91-5,5.79-8.88,5.73a1.47,1.47,0,0,0-.39,0L20.12,43A31.07,31.07,0,0,0,35,30.9ZM19,45.79,31.17,48a13.46,13.46,0,0,1,6.32,8.74l-8.56,5.89C26.36,55.59,23,49.87,19,45.79ZM42.95,80A31.66,31.66,0,0,0,30.88,65l8.39-5.77c3.91,2.08,5.81,5,5.73,8.88a1.48,1.48,0,0,0,.06.44Zm2.86,1L48.08,68.7a13.46,13.46,0,0,1,8.74-6.32l5.89,8.56C55.64,73.51,49.91,76.91,45.81,81ZM65,69,59.23,60.6c2-3.84,4.88-5.73,8.66-5.73H68l12,2.22A31.44,31.44,0,0,0,65,69Zm3.81-17a13.46,13.46,0,0,1-6.32-8.74l8.56-5.89c2.57,7.07,6,12.8,10.06,16.9Z"></path>
  </g>
</svg>