<svg id="SvgjsSvg1013" width="288" height="50" xmlns="http://www.w3.org/2000/svg" version="1.1" xmlns:xlink="http://www.w3.org/1999/xlink" xmlns:svgjs="http://svgjs.com/svgjs"><defs id="SvgjsDefs1014"></defs><g id="SvgjsG1015"><svg class="looka-1j8o68f" viewBox="-4 0 374 77.761" width="288" height="50"><g fill="#22c55e" transform="matrix(.81654 0 0 .81654 -9.88 2.1)" class="color15eda3 svgShape"><path xmlns="http://www.w3.org/2000/svg" d="M91.56,56.18l-4.39-.81c-5.58-3.67-10.36-10.66-13.55-19.78l10.32-7.1A1.5,1.5,0,1,0,82.24,26L71.78,33.21A28.65,28.65,0,0,1,58.26,13.54L59.11,9a1.5,1.5,0,1,0-2.95-.55l-.79,4.25,0,0c-3.65,5.7-10.48,10.4-19.78,13.65l-6.25-9.09A1.5,1.5,0,0,0,26.84,19l6.34,9.22A28.65,28.65,0,0,1,13.5,41.73L9,40.89a1.5,1.5,0,0,0-.55,3l4.56.84c5.53,3.65,10.14,10.46,13.39,19.75l-10.13,7a1.5,1.5,0,1,0,1.7,2.47L28.2,66.81A28.66,28.66,0,0,1,41.73,86.55l-.81,4.36a1.5,1.5,0,0,0,1.2,1.75l.28,0a1.5,1.5,0,0,0,1.47-1.23L44.7,87c3.67-5.53,10.65-10.28,19.77-13.47L71.54,83.8A1.5,1.5,0,0,0,74,82.1L66.84,71.67A28.68,28.68,0,0,1,86.6,58.31l4.41.82.28,0a1.5,1.5,0,0,0,.27-3ZM57,20.11a31.66,31.66,0,0,0,12,14.94l-8.39,5.77c-3.91-2.08-5.81-5-5.73-8.88a1.49,1.49,0,0,0,0-.37ZM46.15,50.82l-6,4.16A16.45,16.45,0,0,0,37,49.12Zm-7.73-4.48A13.34,13.34,0,0,0,42.69,42l4,5.84Zm9.46,6.93L46.34,61.6A13.32,13.32,0,0,0,42,57.31ZM45,40.13A16.44,16.44,0,0,0,50.87,37l-1.7,9.18Zm5.84,13.59,4.16,6a16.45,16.45,0,0,0-5.86,3.14Zm2.58-1.54,8,1.48a13.5,13.5,0,0,0-4.08,4.2Zm-1.31-5.45,1.53-8.27A13.34,13.34,0,0,0,58,42.71Zm1.7,2.47,6-4.16A16.45,16.45,0,0,0,63,50.89Zm.41-30.36L51.95,31.19a13.47,13.47,0,0,1-8.74,6.32l-5.89-8.56C44.42,26.36,50.15,22.93,54.23,18.83ZM35,30.9l5.77,8.38c-2.08,3.91-5,5.79-8.88,5.73a1.47,1.47,0,0,0-.39,0L20.12,43A31.07,31.07,0,0,0,35,30.9ZM19,45.79,31.17,48a13.46,13.46,0,0,1,6.32,8.74l-8.56,5.89C26.36,55.59,23,49.87,19,45.79ZM42.95,80A31.66,31.66,0,0,0,30.88,65l8.39-5.77c3.91,2.08,5.81,5,5.73,8.88a1.48,1.48,0,0,0,.06.44Zm2.86,1L48.08,68.7a13.46,13.46,0,0,1,8.74-6.32l5.89,8.56C55.64,73.51,49.91,76.91,45.81,81ZM65,69,59.23,60.6c2-3.84,4.88-5.73,8.66-5.73H68l12,2.22A31.44,31.44,0,0,0,65,69Zm3.81-17a13.46,13.46,0,0,1-6.32-8.74l8.56-5.89c2.57,7.07,6,12.8,10.06,16.9Z"></path></g><path fill="#22c55e" d="M19.541 13.3594 l-3.1445 6.6797 l-5.0195 0 l-0.15625 -5.459 c-0.86914 1.7871 -1.7773 3.6328 -2.5977 5.459 l-5.0293 0 l-0.097656 -6.6797 l-0.88867 0 l-0.14648 -7.9785 l5.0977 0 l-0.13672 5.7715 c0.88867 -1.9043 1.8164 -3.8574 2.7344 -5.7715 l4.6973 0 l0 5.7715 c0.87891 -1.9043 1.709 -3.8574 2.5684 -5.7715 l5 0 l-3.7695 7.9785 l0.88867 0 z M22.15816875 14.5703 c0.078125 -0.33203 0.18555 -0.625 0.2832 -0.9375 l-1.084 0 c2.3438 -6.377 12.383 -7.0117 11.084 0 l1.0938 0 c-0.019531 0.11719 -0.019531 0.23438 -0.048828 0.36133 l-0.41992 1.6309 l-6.4648 0 c-0.33203 2.4121 4.248 1.6797 4.6973 0.81055 l1.4941 0 l-0.71289 2.7832 c-3.8574 2.2168 -11.357 1.6602 -9.9219 -4.6484 z M29.082068749999998 12.685500000000001 c0.21484 -1.0645 -2.1289 -1.6699 -3.2324 0 c0.0097656 0 3.2324 0.0097656 3.2324 0 z M38.164053125 13.6328 l1.084 0 l-0.72266 3.1934 c1.416 0.29297 2.4707 -1.7285 2.5391 -3.1934 l-1.1035 0 c0.058594 -1.0156 -0.37109 -1.7383 -1.543 -1.1816 z M44.560953125 13.6328 l1.1133 0 c-0.048828 0.25391 -0.10742 0.51758 -0.15625 0.74219 c-0.95703 4.1309 -3.5645 6.377 -7.8516 5.3223 l-0.039063 0.30273 l-4.4434 0 l1.4941 -6.3672 l-1.123 0 l1.9629 -8.457 l4.5898 0 l-0.9375 4.043 c3.8965 -1.6602 5.9863 0.57617 5.3906 4.4141 z M47.5097625 13.789100000000001 l-1.0645 0 l0.3125 -1.4453 l-1.1523 0 l0.74219 -3.2422 l1.1816 0 l0.6543 -2.8613 l4.6387 0 l-0.6543 2.8613 l2.9102 0 l-0.74219 3.2422 l-2.9395 0 c-0.087891 0.49805 -0.19531 0.94727 -0.3125 1.4453 l1.0547 0 c-0.19531 0.83984 -0.40039 1.6699 -0.57617 2.5195 c-0.36133 1.6504 0.9375 1.5137 1.4355 0.49805 l1.3574 0 l-0.76172 3.3789 c-1.377 0.11719 -3.6328 0.29297 -5.166 -0.019531 c-1.7773 -0.38086 -1.9141 -2.0703 -1.5527 -3.6719 z M67.3828125 14.541 c-0.81055 3.5547 -3.4082 5.8203 -7.0996 5.8203 c-3.6035 0 -5.2734 -2.168 -4.4336 -5.8203 c0.068359 -0.29297 0.14648 -0.5957 0.26367 -0.86914 l-1.0059 0 c1.0449 -3.0957 3.5156 -4.9707 6.875 -4.9707 c3.457 0 4.9316 2.0215 4.5703 4.9707 l0.98633 0 c-0.029297 0.27344 -0.087891 0.57617 -0.15625 0.86914 z M59.7851125 13.6719 l0.97656 0 c-0.55664 1.4648 -0.66406 3.3789 0.30273 3.3789 c0.88867 0 1.6797 -1.9141 1.7969 -3.3789 l-0.9668 0 c0.078125 -0.91797 -0.10742 -1.6602 -0.68359 -1.6602 c-0.53711 0 -1.0742 0.74219 -1.4258 1.6602 z M79.599609375 14.541 c-0.81055 3.5547 -3.4082 5.8203 -7.0996 5.8203 c-3.6035 0 -5.2734 -2.168 -4.4336 -5.8203 c0.068359 -0.29297 0.14648 -0.5957 0.26367 -0.86914 l-1.0059 0 c1.0449 -3.0957 3.5156 -4.9707 6.875 -4.9707 c3.457 0 4.9316 2.0215 4.5703 4.9707 l0.98633 0 c-0.029297 0.27344 -0.087891 0.57617 -0.15625 0.86914 z M72.001909375 13.6719 l0.97656 0 c-0.55664 1.4648 -0.66406 3.3789 0.30273 3.3789 c0.88867 0 1.6797 -1.9141 1.7969 -3.3789 l-0.9668 0 c0.078125 -0.91797 -0.10742 -1.6602 -0.68359 -1.6602 c-0.53711 0 -1.0742 0.74219 -1.4258 1.6602 z M91.76740625 13.6719 l-1.4746 6.3672 l-4.6094 0 l1.2598 -5.4492 c0.039063 -0.21484 0.078125 -0.40039 0.10742 -0.60547 c0.019531 -0.097656 0.039063 -0.20508 0.058594 -0.3125 l-0.98633 0 c0.0097656 -0.087891 0.019531 -0.16602 0.039063 -0.26367 c0.019531 -0.17578 0.039063 -0.32227 0.058594 -0.43945 c0.0097656 -0.14648 0.0097656 -0.23438 0 -0.2832 l0 0.029297 c-0.14648 -0.56641 -1.0156 -0.46875 -1.2305 -0.029297 l-0.22461 0.98633 l0.9668 0 l-1.4551 6.3672 l-4.5996 0 l1.4648 -6.3672 l-0.98633 0 l1.0645 -4.6387 l4.5898 0 l-0.078125 0.41992 c1.5234 -0.72266 3.7402 -1.3965 4.9414 0.40039 c0.48828 0.72266 0.58594 1.7676 0.25391 3.1836 l-0.14648 0.63477 l0.98633 0 z M106.59190625 13.6328 l-1.4551 6.3574 l-4.541 0 l-1.9336 -6.3574 l-0.22461 0 l-1.4746 6.3574 l-4.5996 0 l1.4746 -6.3574 l-0.88867 0 l1.8848 -8.1836 l5.3613 0 l1.582 5.1367 l1.2012 -5.1367 l4.6191 0 l-1.8945 8.1836 l0.88867 0 z M117.891015625 13.6719 l2.832 6.3672 l-5.791 0 l-1.8359 -4.4043 l-1.0156 4.4043 l-4.9023 0 l1.4648 -6.3672 l-0.98633 0 l1.8848 -8.2422 l4.9121 0 l-0.94727 4.1016 c1.2793 -1.3672 2.5293 -2.7539 3.7988 -4.1016 l5.6445 0 l-6.6602 6.8359 l0.5957 1.4063 l1.0059 0 z M130.439578125 13.3594 l-1.4844 6.6797 l-4.9512 0 l1.5234 -6.6797 l-0.88867 0 l0.98633 -4.2773 l-3.9063 0 l0.85938 -3.7012 l12.676 0 l-0.83008 3.7012 l-3.8965 0 l-0.95703 4.2773 l0.86914 0 z" transform="translate(84.811 19.087) scale(2.10854)" class="color15eda3 svgShape"></path></svg></g></svg>